<svg width="512" height="512" viewBox="0 0 512 512" fill="none" xmlns="http://www.w3.org/2000/svg">
<rect width="512" height="512" fill="white"/>
<path d="M217.086 472.185C217.097 482.706 221.179 492.792 228.437 500.231C235.694 507.671 245.534 511.855 255.798 511.866C280.043 513.556 293.726 499.192 294.952 472.185V331.144H217.045L217.086 472.185Z" fill="#1876D2"/>
<path d="M230.323 289.408H250.437V217.065H211.483C217.408 222.241 222.161 228.668 225.414 235.901C228.667 243.135 230.342 251.003 230.323 258.961V289.408Z" fill="#1876D2"/>
<path d="M197.569 336.73V356.164C197.586 357.66 198.188 359.089 199.243 360.137C200.298 361.184 201.72 361.764 203.197 361.75H208.699V331.144H203.197C201.72 331.13 200.298 331.71 199.243 332.757C198.188 333.805 197.586 335.233 197.569 336.73Z" fill="#1876D2"/>
<path d="M314.435 25.0796C306.372 25.0382 298.621 28.0906 292.882 33.5674C287.144 39.0442 283.886 46.4982 283.823 54.2945C283.886 62.0907 287.144 69.5447 292.882 75.0215C298.621 80.4983 306.372 83.5507 314.435 83.5093C322.496 83.548 330.245 80.4943 335.981 75.0178C341.717 69.5413 344.974 62.0889 345.036 54.2945C344.974 46.5001 341.717 39.0476 335.981 33.5711C330.245 28.0946 322.496 25.0409 314.435 25.0796Z" fill="#1876D2"/>
<path d="M367.297 0.0377197H261.565V108.551H367.297V0.0377197ZM314.431 92.6704C304.588 92.7099 295.132 88.692 288.137 81.4978C281.142 74.3037 277.179 64.5207 277.117 54.2946C277.179 44.0685 281.142 34.2855 288.137 27.0914C295.132 19.8972 304.588 15.8793 314.431 15.9188C324.272 15.8821 333.725 19.9013 340.718 27.0951C347.711 34.289 351.673 44.0704 351.735 54.2946C351.673 64.5188 347.711 74.3002 340.718 81.4941C333.725 88.6879 324.272 92.7071 314.431 92.6704Z" fill="#1876D2"/>
<path d="M294.952 297.755H217.045V322.796H294.952V297.755Z" fill="#1876D2"/>
<path d="M261.565 289.408H281.675V258.961C281.656 251.003 283.331 243.135 286.585 235.901C289.838 228.668 294.593 222.241 300.519 217.065H261.565V289.408Z" fill="#1876D2"/>
<path d="M222.611 64.0332H139.139V91.8572H222.611V64.0332Z" fill="#1876D2"/>
<path d="M372.862 150.287H322.778V180.894H372.862V150.287Z" fill="#1876D2"/>
<path d="M377.649 14.2661V111.339C377.649 112.457 377.205 113.528 376.415 114.319C375.624 115.109 374.553 115.553 373.435 115.553H256.005C254.887 115.553 253.816 115.109 253.026 114.319C252.235 113.528 251.791 112.457 251.791 111.339V13.95H138.711C130.762 13.9079 123.12 17.021 117.463 22.6064C111.805 28.1918 108.593 35.7935 108.532 43.744V178.913C108.591 186.865 111.801 194.47 117.459 200.057C123.117 205.645 130.76 208.759 138.711 208.717H373.267C381.222 208.765 388.87 205.653 394.533 200.065C400.195 194.476 403.409 186.869 403.467 178.913V43.744C403.422 36.5481 400.788 29.609 396.047 24.196C391.306 18.7831 384.775 15.2581 377.649 14.2661ZM230.85 96.8212C230.85 97.9389 230.406 99.0107 229.616 99.801C228.826 100.591 227.754 101.035 226.637 101.035H133.676C132.559 101.035 131.487 100.591 130.697 99.801C129.907 99.0107 129.463 97.9389 129.463 96.8212V58.1143C129.463 56.9966 129.907 55.9247 130.697 55.1344C131.487 54.3441 132.559 53.9001 133.676 53.9001H226.637C227.754 53.9001 228.826 54.3441 229.616 55.1344C230.406 55.9247 230.85 56.9966 230.85 58.1143V96.8212ZM382.536 183.917C382.536 185.035 382.093 186.107 381.302 186.897C380.512 187.687 379.44 188.131 378.323 188.131H319.608C318.49 188.131 317.419 187.687 316.628 186.897C315.838 186.107 315.394 185.035 315.394 183.917V145.2C315.394 144.082 315.838 143.01 316.628 142.22C317.419 141.429 318.49 140.985 319.608 140.985H378.323C379.44 140.985 380.512 141.429 381.302 142.22C382.093 143.01 382.536 144.082 382.536 145.2V183.917Z" fill="#1876D2"/>
</svg>
