<svg width="512" height="512" viewBox="0 0 512 512" fill="none" xmlns="http://www.w3.org/2000/svg">
<g clip-path="url(#clip0_320_2)">
<rect width="512" height="512" fill="white"/>
<path d="M155.37 88.662C155.37 85.8983 154.272 83.2478 152.318 81.2936C150.364 79.3393 147.713 78.2415 144.95 78.2415H108.834C106.07 78.2415 103.419 79.3393 101.465 81.2936C99.511 83.2478 98.4131 85.8983 98.4131 88.662V112.027H155.37V88.662Z" fill="#1876D2"/>
<path d="M449.73 242.834C458.861 265.705 462.249 290.464 459.599 314.947C456.949 339.429 448.341 362.89 434.529 383.277C420.716 403.664 402.119 420.357 380.364 431.895C358.609 443.434 334.358 449.467 309.733 449.467C285.107 449.467 260.856 443.434 239.101 431.895C217.346 420.357 198.749 403.664 184.937 383.277C171.124 362.89 162.516 339.429 159.866 314.947C157.216 290.464 160.605 265.705 169.735 242.834L180.803 185.619H130.124V470.403H477.303C486.492 470.403 495.307 466.757 501.811 460.265C508.315 453.773 511.978 444.966 511.995 435.776V185.619H438.663L449.73 242.834ZM482.869 410.145C482.869 414.626 481.54 419.006 479.051 422.731C476.562 426.456 473.024 429.36 468.885 431.074C464.745 432.789 460.19 433.238 455.796 432.364C451.402 431.489 447.365 429.332 444.197 426.164C441.029 422.996 438.872 418.959 437.998 414.565C437.123 410.171 437.572 405.616 439.287 401.476C441.001 397.337 443.905 393.799 447.63 391.31C451.355 388.821 455.735 387.492 460.216 387.492C466.224 387.492 471.986 389.879 476.234 394.127C480.482 398.376 482.869 404.137 482.869 410.145Z" fill="#1876D2"/>
<path d="M0.680664 435.776C0.697809 444.966 4.36041 453.773 10.8646 460.265C17.3687 466.757 26.183 470.403 35.3726 470.403H123.656V185.619H0.680664V435.776Z" fill="#1876D2"/>
<path d="M193.812 118.5H130.124V179.146H182.097L193.812 118.5Z" fill="#1876D2"/>
<path d="M471.549 126.332C457.248 121.173 442.158 118.545 426.955 118.565H425.66L437.569 179.146H512.002V172.674C512.002 152.933 496.533 135.199 471.549 126.332Z" fill="#1876D2"/>
<path d="M41.1331 126.331C16.1497 135.263 0.680664 152.998 0.680664 172.674V179.146H123.656V118.5H85.7278C70.521 118.502 55.4307 121.152 41.1331 126.331ZM95.048 151.185C95.048 156.946 82.1032 161.606 66.699 161.606C51.2947 161.606 38.3499 156.946 38.3499 151.185C38.3499 145.425 51.2947 140.829 66.699 140.829C82.1032 140.829 95.048 145.748 95.048 151.121V151.185Z" fill="#1876D2"/>
<path d="M460.48 426.326C469.416 426.326 476.661 419.082 476.661 410.145C476.661 401.209 469.416 393.964 460.48 393.964C451.543 393.964 444.299 401.209 444.299 410.145C444.299 419.082 451.543 426.326 460.48 426.326Z" fill="#1876D2"/>
<path d="M407.922 60.9601C406.917 55.384 403.977 50.341 399.62 46.7184C395.264 43.0958 389.769 41.1257 384.103 41.1546H235.239C229.58 41.1281 224.094 43.1006 219.749 46.7241C215.403 50.3476 212.476 55.3893 211.485 60.9601L206.695 85.5552H412.517L407.922 60.9601Z" fill="#1876D2"/>
<path d="M309.738 147.884C335.794 147.853 361.415 154.574 384.101 167.391C406.787 180.209 425.765 198.686 439.185 221.022L413.943 92.0271H205.532L180.549 221.022C193.951 198.728 212.889 180.279 235.525 167.464C258.161 154.649 283.726 147.904 309.738 147.884Z" fill="#1876D2"/>
<path d="M309.732 154.356C281.199 154.356 253.306 162.818 229.581 178.67C205.856 194.523 187.364 217.055 176.445 243.416C165.525 269.778 162.668 298.786 168.235 326.771C173.802 354.757 187.542 380.463 207.719 400.64C227.895 420.816 253.601 434.557 281.587 440.123C309.572 445.69 338.58 442.833 364.942 431.913C391.304 420.994 413.835 402.503 429.688 378.778C445.541 355.053 454.002 327.16 454.002 298.626C453.933 260.384 438.712 223.729 411.671 196.688C384.63 169.647 347.974 154.425 309.732 154.356ZM309.732 404.255C288.841 404.255 268.419 398.06 251.048 386.453C233.677 374.847 220.138 358.35 212.144 339.048C204.149 319.747 202.057 298.509 206.133 278.019C210.208 257.529 220.269 238.707 235.041 223.935C249.814 209.162 268.635 199.102 289.125 195.026C309.615 190.95 330.854 193.042 350.155 201.037C369.456 209.032 385.953 222.571 397.56 239.941C409.167 257.312 415.362 277.734 415.362 298.626C415.362 326.64 404.233 353.508 384.424 373.317C364.614 393.126 337.747 404.255 309.732 404.255Z" fill="#1876D2"/>
</g>
<defs>
<clipPath id="clip0_320_2">
<rect width="512" height="512" fill="white"/>
</clipPath>
</defs>
</svg>
