<svg width="512" height="512" viewBox="0 0 512 512" fill="none" xmlns="http://www.w3.org/2000/svg">
<rect width="512" height="512" fill="white"/>
<path d="M263.474 256.921H252.435H171.055V276.187L34.7852 512H83.2522L196.242 316.426V512H238.287V316.426L351.276 512H399.944L263.474 275.786V256.921Z" fill="#1876D2"/>
<path d="M466.472 107.003H477.008V98.0723C477.022 96.3855 476.702 94.7127 476.069 93.1493C475.436 91.5859 474.501 90.1625 473.317 88.9605C472.134 87.7585 470.725 86.8013 469.172 86.1436C467.619 85.486 465.951 85.1408 464.264 85.1276H417.001C413.683 85.2832 410.554 86.7186 408.271 89.1323C405.988 91.546 404.73 94.7502 404.759 98.0723V100.882H378.669C376.008 100.882 373.456 101.939 371.574 103.821C369.692 105.703 368.635 108.255 368.635 110.917V117.64H350.873V57.4321H318.763C317.953 54.1489 317.549 50.779 317.559 47.3975V22.9131C317.871 17.4464 316.064 12.0695 312.513 7.90149C308.962 3.73347 303.94 1.09531 298.493 0.536011H151.988C146.715 0.902254 141.778 3.25511 138.173 7.11964C134.567 10.9842 132.562 16.0726 132.562 21.3578C132.562 26.643 134.567 31.7315 138.173 35.596C141.778 39.4605 146.715 41.8133 151.988 42.1796H264.275C272.001 42.1796 278.323 47.6986 278.323 52.2142C278.261 53.6147 277.81 54.9701 277.019 56.1277H96.396C92.3508 56.1277 88.4713 57.7346 85.6109 60.595C82.7504 63.4555 81.1436 67.335 81.1436 71.3802V233.238C81.1435 235.157 81.5232 237.058 82.2607 238.83C82.9982 240.601 84.0788 242.21 85.4406 243.562C86.8023 244.915 88.4182 245.984 90.1951 246.71C91.972 247.435 93.8748 247.802 95.794 247.788H350.873V177.546H368.635V184.47C368.788 187.026 369.913 189.426 371.778 191.179C373.644 192.933 376.109 193.907 378.669 193.903H404.759V196.712C404.746 198.381 405.063 200.036 405.693 201.582C406.322 203.127 407.251 204.533 408.427 205.718C409.602 206.902 411.001 207.843 412.541 208.484C414.082 209.126 415.734 209.456 417.403 209.456H464.666C468.046 209.456 471.287 208.114 473.677 205.724C476.067 203.334 477.409 200.092 477.409 196.712V187.782H466.873C462.986 187.756 459.265 186.207 456.507 183.468C453.749 180.729 452.175 177.018 452.122 173.131V121.854C452.145 118.008 453.649 114.319 456.321 111.553C458.994 108.788 462.629 107.158 466.472 107.003ZM280.43 91.048C280.43 89.6641 280.98 88.3369 281.959 87.3584C282.937 86.3798 284.265 85.83 285.649 85.83H297.489C298.873 85.83 300.201 86.3798 301.179 87.3584C302.158 88.3369 302.707 89.6641 302.707 91.048V102.989C302.707 104.373 302.158 105.7 301.179 106.679C300.201 107.657 298.873 108.207 297.489 108.207H285.649C284.265 108.207 282.937 107.657 281.959 106.679C280.98 105.7 280.43 104.373 280.43 102.989V91.048ZM280.43 116.436C280.43 115.052 280.98 113.724 281.959 112.746C282.937 111.767 284.265 111.218 285.649 111.218H297.489C298.873 111.218 300.201 111.767 301.179 112.746C302.158 113.724 302.707 115.052 302.707 116.436V128.276C302.707 129.66 302.158 130.987 301.179 131.966C300.201 132.945 298.873 133.494 297.489 133.494H285.649C284.265 133.494 282.937 132.945 281.959 131.966C280.98 130.987 280.43 129.66 280.43 128.276V116.436ZM255.444 91.048C255.444 89.6641 255.994 88.3369 256.973 87.3584C257.951 86.3798 259.279 85.83 260.663 85.83H272.503C273.887 85.83 275.214 86.3798 276.193 87.3584C277.171 88.3369 277.721 89.6641 277.721 91.048V102.989C277.721 104.373 277.171 105.7 276.193 106.679C275.214 107.657 273.887 108.207 272.503 108.207H260.663C259.279 108.207 257.951 107.657 256.973 106.679C255.994 105.7 255.444 104.373 255.444 102.989V91.048ZM255.444 116.436C255.444 115.052 255.994 113.724 256.973 112.746C257.951 111.767 259.279 111.218 260.663 111.218H272.503C273.887 111.218 275.214 111.767 276.193 112.746C277.171 113.724 277.721 115.052 277.721 116.436V128.276C277.721 129.66 277.171 130.987 276.193 131.966C275.214 132.945 273.887 133.494 272.503 133.494H260.663C259.279 133.494 257.951 132.945 256.973 131.966C255.994 130.987 255.444 129.66 255.444 128.276V116.436ZM322.275 220.795H109.24V194.003H322.275V220.795Z" fill="#1876D2"/>
</svg>
