<svg width="161" height="139" viewBox="0 0 161 139" fill="none" xmlns="http://www.w3.org/2000/svg">
<g clip-path="url(#clip0_13_7)">
<path d="M13.326 138.607C7.87385 138.607 3.7334 134.483 3.7334 129.015V80.4999C3.7334 79.1465 4.50953 78.3703 5.85975 78.3703C7.20997 78.3703 7.98931 79.1465 7.98931 80.4999V129.015C7.98931 132.158 10.183 134.351 13.3228 134.351H147.677C150.817 134.351 153.011 132.158 153.011 129.015V80.4999C153.011 79.1465 153.787 78.3703 155.141 78.3703C156.494 78.3703 157.267 79.1465 157.267 80.4999V129.015C157.267 134.483 153.146 138.607 147.677 138.607H13.326Z" fill="#28282B"/>
<path d="M69.3037 97.5556C67.9502 97.5556 67.1773 96.7795 67.1773 95.426V82.1997L7.32838 68.8579C5.2473 68.3576 3.39417 67.1737 2.06556 65.4956C0.736937 63.8176 0.00962253 61.7423 0 59.602V35.715C0 30.2468 4.12442 26.1224 9.59264 26.1224H151.407C156.875 26.1224 161 30.2468 161 35.715V59.602C160.99 61.7445 160.261 63.8215 158.929 65.5004C157.598 67.1792 155.742 68.3626 153.659 68.8611L93.8224 82.1997V95.426C93.8224 96.7795 93.0495 97.5556 91.6961 97.5556H69.3037ZM71.4332 93.2997H89.5665V75.1632H71.4332V93.2997ZM91.6961 70.9072C93.0495 70.9072 93.8224 71.6834 93.8224 73.0368V78.024L152.488 64.9002C153.71 64.6638 154.808 64.0015 155.587 63.0313C156.367 62.0612 156.776 60.846 156.744 59.602V35.715C156.744 32.5752 154.55 30.3815 151.407 30.3815H9.59264C6.44961 30.3815 4.25591 32.5752 4.25591 35.715V59.602C4.22337 60.846 4.63321 62.0612 5.41253 63.0313C6.19184 64.0015 7.29008 64.6638 8.51182 64.9002L67.1773 78.024V73.0368C67.1773 71.6834 67.9502 70.9072 69.3037 70.9072H91.6961Z" fill="#28282B"/>
<path d="M106.623 15.4521C105.272 15.4521 104.496 14.676 104.496 13.3226V9.59263C104.496 6.44961 102.303 4.2559 99.1595 4.2559H61.8409C58.6979 4.2559 56.5042 6.44961 56.5042 9.59263V13.3226C56.5042 14.676 55.7281 15.4521 54.3746 15.4521C53.0212 15.4521 52.2483 14.676 52.2483 13.3226V9.59263C52.2483 4.14045 56.3727 -5.57303e-06 61.8409 -5.57303e-06H99.1595C100.427 -0.0275792 101.687 0.201699 102.863 0.674013C104.039 1.14633 105.108 1.8519 106.004 2.74821C106.9 3.64452 107.606 4.71302 108.078 5.88931C108.55 7.06561 108.78 8.32535 108.752 9.59263V13.3226C108.752 14.676 107.976 15.4521 106.623 15.4521Z" fill="#1976D2"/>
<rect x="66.5916" y="70.704" width="27.8167" height="26.9738" rx="3" fill="#1976D2"/>
</g>
<defs>
<clipPath id="clip0_13_7">
<rect width="161" height="138.607" fill="white" transform="translate(0.000244141)"/>
</clipPath>
</defs>
</svg>
