<svg width="90" height="170" viewBox="0 0 90 170" fill="none" xmlns="http://www.w3.org/2000/svg">
<path d="M44.9718 27.0403C43.6017 27.0403 42.4913 28.1507 42.4913 29.5208V33.9908H38.0212C36.6512 33.9908 35.5408 35.1012 35.5408 36.4713C35.5408 37.8414 36.6512 38.9518 38.0212 38.9518H42.4913V43.4221C42.4913 44.7922 43.6017 45.9026 44.9718 45.9026C46.3418 45.9026 47.4522 44.7922 47.4522 43.4221V38.9518H51.9223C53.2923 38.9518 54.4027 37.8414 54.4027 36.4713C54.4027 35.1012 53.2923 33.9908 51.9223 33.9908H47.4522V29.5211C47.4522 28.1507 46.3418 27.0403 44.9718 27.0403Z" fill="#1976D2"/>
<path d="M79.8624 16.0511H66.1624V6.33396C66.1624 2.84134 63.3211 0 59.8285 0H30.1152C26.6222 0 23.7809 2.84134 23.7809 6.33396V16.0514H10.081C4.52232 16.0514 0 20.5737 0 26.1323V159.275C0 164.834 4.52232 169.356 10.081 169.356H79.862C85.4206 169.356 89.943 164.834 89.943 159.275V151.727C89.943 150.357 88.8326 149.247 87.4625 149.247C86.0925 149.247 84.982 150.357 84.982 151.727V159.275C84.982 162.098 82.6852 164.395 79.8624 164.395H10.0813C7.25847 164.395 4.96158 162.098 4.96158 159.275V58.2189H14.5775C15.9475 58.2189 17.0579 57.1085 17.0579 55.7385C17.0579 54.3684 15.9475 53.258 14.5775 53.258H4.96158V26.132C4.96158 23.3092 7.25847 21.0123 10.0813 21.0123H79.8624C82.6852 21.0123 84.982 23.3092 84.982 26.132V53.2577H26.175C24.805 53.2577 23.6946 54.3681 23.6946 55.7381C23.6946 57.1082 24.805 58.2186 26.175 58.2186H84.982V140.129C84.982 141.499 86.0925 142.609 87.4625 142.609C88.8326 142.609 89.943 141.499 89.943 140.129V26.132C89.9433 20.5734 85.421 16.0511 79.8624 16.0511ZM28.7425 6.33396C28.7425 5.57715 29.3584 4.96126 30.1155 4.96126H59.8288C60.5856 4.96126 61.2015 5.57715 61.2015 6.33396V16.0514H28.7425V6.33396Z" fill="#28282B"/>
<path d="M60.5 73.5L24 112.5L66.5 110L29.5 149.5" stroke="#1976D2" stroke-width="8" stroke-linecap="round" stroke-linejoin="round"/>
</svg>
