<svg width="112" height="192" viewBox="0 0 112 192" fill="none" xmlns="http://www.w3.org/2000/svg">
<path d="M109.861 58.7857V187.917C109.861 189.5 107.985 190.334 106.81 189.273L99.3305 182.523C97.6531 181.009 95.1024 181.009 93.4249 182.523L87.2454 188.1C84.7741 190.331 81.0164 190.331 78.5451 188.1L72.3656 182.523C70.6881 181.009 68.1375 181.009 66.46 182.523L60.2805 188.1C57.8092 190.331 54.0515 190.331 51.5802 188.1L45.4007 182.523C43.7232 181.009 41.1726 181.009 39.4951 182.523L33.3156 188.1C30.8443 190.331 27.0866 190.331 24.6153 188.1L16.9464 181.179C16.1148 180.429 14.8507 180.429 14.0195 181.179L5.34943 189.004C4.05957 190.168 2.00049 189.252 2.00049 187.515V132.209" stroke="#28282B" stroke-width="4" stroke-miterlimit="10" stroke-linecap="round" stroke-linejoin="round"/>
<path d="M2 118.608V6.9384C2 4.21096 4.21096 2 6.9384 2H104.923C107.65 2 109.861 4.21096 109.861 6.9384V45.1845" stroke="#28282B" stroke-width="4" stroke-miterlimit="10" stroke-linecap="round" stroke-linejoin="round"/>
<path d="M17.2373 18.2637H44.6004" stroke="#1976D2" stroke-width="4" stroke-miterlimit="10" stroke-linecap="round" stroke-linejoin="round"/>
<path d="M17.2373 31.1215H61.8182" stroke="#1976D2" stroke-width="4" stroke-miterlimit="10" stroke-linecap="round" stroke-linejoin="round"/>
<path d="M17.2373 55.8471H53.0839" stroke="#1976D2" stroke-width="4" stroke-miterlimit="10" stroke-linecap="round" stroke-linejoin="round"/>
<path d="M82.5715 55.8471H94.6234" stroke="#1976D2" stroke-width="4" stroke-miterlimit="10" stroke-linecap="round" stroke-linejoin="round"/>
<path d="M17.2373 71.6718H53.0839" stroke="#1976D2" stroke-width="4" stroke-miterlimit="10" stroke-linecap="round" stroke-linejoin="round"/>
<path d="M82.5715 71.6718H94.6234" stroke="#1976D2" stroke-width="4" stroke-miterlimit="10" stroke-linecap="round" stroke-linejoin="round"/>
<path d="M17.2373 87.4962H53.0839" stroke="#1976D2" stroke-width="4" stroke-miterlimit="10" stroke-linecap="round" stroke-linejoin="round"/>
<path d="M82.5715 87.4962H94.6234" stroke="#1976D2" stroke-width="4" stroke-miterlimit="10" stroke-linecap="round" stroke-linejoin="round"/>
<path d="M17.2373 103.321H53.0839" stroke="#1976D2" stroke-width="4" stroke-miterlimit="10" stroke-linecap="round" stroke-linejoin="round"/>
<path d="M82.5715 103.321H94.6234" stroke="#1976D2" stroke-width="4" stroke-miterlimit="10" stroke-linecap="round" stroke-linejoin="round"/>
<path d="M17.2373 119.145H53.0839" stroke="#1976D2" stroke-width="4" stroke-miterlimit="10" stroke-linecap="round" stroke-linejoin="round"/>
<path d="M82.5715 119.145H94.6234" stroke="#1976D2" stroke-width="4" stroke-miterlimit="10" stroke-linecap="round" stroke-linejoin="round"/>
<path d="M17.2373 166.949H82.5715" stroke="#1976D2" stroke-width="4" stroke-miterlimit="10" stroke-linecap="round" stroke-linejoin="round"/>
<path d="M73.0571 142.223H94.6231" stroke="#1976D2" stroke-width="4" stroke-miterlimit="10" stroke-linecap="round" stroke-linejoin="round"/>
<path d="M51.4362 150.795H20.3082C18.6122 150.795 17.2373 149.42 17.2373 147.724V138.371C17.2373 136.675 18.6122 135.3 20.3082 135.3H51.4362C53.1322 135.3 54.5071 136.675 54.5071 138.371V147.724C54.5071 149.419 53.1322 150.795 51.4362 150.795Z" stroke="#1976D2" stroke-width="4" stroke-miterlimit="10" stroke-linecap="round" stroke-linejoin="round"/>
</svg>
