<svg width="155" height="166" viewBox="0 0 155 166" fill="none" xmlns="http://www.w3.org/2000/svg">
<path d="M153.631 36.4852L78.5532 0.240767C77.8876 -0.0802555 77.1125 -0.0802555 76.4472 0.240767L1.36903 36.4852C0.531915 36.8893 0 37.737 0 38.6665V126.689C0 127.618 0.531915 128.466 1.36903 128.87L76.4468 165.115C76.7795 165.275 77.1399 165.356 77.5 165.356C77.8601 165.356 78.2202 165.275 78.5532 165.115L153.631 128.87C154.468 128.466 155 127.618 155 126.689V38.6668C155 37.7367 154.468 36.8896 153.631 36.4852ZM77.5 5.11197L147.006 38.6665L126.858 48.3934C126.73 48.2962 126.596 48.2064 126.448 48.1351L57.4135 14.8088L77.5 5.11197ZM51.9432 17.5475L121.349 51.0533L107.133 57.9159L37.7569 24.4237L51.9432 17.5475ZM122.972 55.6484V81.0156L109.695 87.4257V62.0585L122.972 55.6484ZM150.156 125.169L79.9222 159.074V76.4312L96.6751 68.3436C97.8797 67.762 98.3848 66.3141 97.8032 65.1092C97.2215 63.9049 95.7737 63.3991 94.5687 63.9811L77.5 72.2214L70.7837 68.9789C69.5788 68.3966 68.1309 68.9023 67.5493 70.107C66.9676 71.3116 67.4728 72.7598 68.6774 73.3414L75.0778 76.4312V159.074L4.8444 125.168V42.5256L58.3265 68.3446C58.666 68.5086 59.0248 68.5862 59.3778 68.5862C60.2782 68.5862 61.1431 68.0817 61.5606 67.2165C62.1423 66.0118 61.6372 64.5637 60.4326 63.982L7.99358 38.6665L32.0557 27.0503L104.817 62.1764C104.827 62.1912 104.839 62.2045 104.85 62.219V91.2851C104.85 92.1186 105.279 92.8934 105.985 93.3368C106.377 93.5829 106.824 93.7073 107.273 93.7073C107.632 93.7073 107.992 93.6275 108.326 93.4663L126.448 84.7177C127.285 84.3136 127.817 83.4662 127.817 82.5364V53.3102L150.156 42.5259V125.169Z" fill="#28282B"/>
<path d="M24.8338 115.774L13.816 110.456C12.6107 109.873 11.1632 110.379 10.5816 111.584C9.99993 112.788 10.505 114.236 11.7097 114.818L22.7274 120.137C23.0669 120.301 23.4257 120.379 23.7787 120.379C24.6791 120.379 25.544 119.874 25.9616 119.009C26.5435 117.804 26.0384 116.356 24.8338 115.774Z" fill="#1976D2"/>
<path d="M34.9735 109.174L13.831 98.9673C12.626 98.3856 11.1782 98.8908 10.5965 100.096C10.0152 101.3 10.5203 102.749 11.7249 103.33L32.8675 113.537C33.2069 113.701 33.5657 113.779 33.9187 113.779C34.8191 113.779 35.684 113.274 36.1016 112.409C36.6833 111.204 36.1782 109.755 34.9735 109.174Z" fill="#1976D2"/>
</svg>
