<svg width="134" height="149" viewBox="0 0 134 149" fill="none" xmlns="http://www.w3.org/2000/svg">
<path d="M119.111 89.5319V27.2963C119.111 12.221 106.89 0 91.8148 0C76.7395 0 64.5185 12.221 64.5185 27.2963V121.593C64.5185 133.927 54.5197 143.926 42.1852 143.926C29.851 143.926 19.8519 133.927 19.8519 121.593V59.357C28.3872 58.1188 34.7243 50.8099 34.7407 42.1852V14.8889C34.7407 13.5185 33.6297 12.4074 32.2593 12.4074H29.7778V2.48148C29.7778 1.11108 28.6667 0 27.2963 0H7.44444C6.07405 0 4.96296 1.11108 4.96296 2.48148V12.4074H2.48148C1.11108 12.4074 0 13.5185 0 14.8889V42.1852C0.0164398 50.8099 6.35352 58.1185 14.8889 59.357V121.593C14.8889 136.668 27.1099 148.889 42.1852 148.889C57.2605 148.889 69.4815 136.668 69.4815 121.593V27.2963C69.4815 14.9618 79.4806 4.96296 91.8148 4.96296C104.149 4.96296 114.148 14.9618 114.148 27.2963V89.5319C105.613 90.7701 99.2757 98.079 99.2593 106.704V134C99.2593 135.37 100.37 136.481 101.741 136.481H104.222V146.407C104.222 147.778 105.333 148.889 106.704 148.889H126.556C127.926 148.889 129.037 147.778 129.037 146.407V136.481H131.519C132.889 136.481 134 135.37 134 134V106.704C133.984 98.079 127.646 90.7704 119.111 89.5319ZM9.92593 4.96296H24.8148V12.4074H9.92593V4.96296ZM4.96296 42.1852V17.3704H29.7778V42.1852C29.7778 49.0375 24.2227 54.5926 17.3704 54.5926C10.5181 54.5926 4.96296 49.0375 4.96296 42.1852ZM124.074 143.926H109.185V136.481H124.074V143.926ZM129.037 131.519H104.222V106.704C104.222 99.8514 109.777 94.2963 116.63 94.2963C123.482 94.2963 129.037 99.8514 129.037 106.704V131.519Z" fill="#28282B"/>
<path d="M5 2C5 0.895431 5.89543 0 7 0H28C29.1046 0 30 0.895431 30 2V12H5V2Z" fill="#1976D2"/>
<path d="M129 147C129 148.105 128.105 149 127 149L106 149C104.895 149 104 148.105 104 147L104 137L129 137L129 147Z" fill="#1976D2"/>
</svg>
