<svg width="180" height="138" viewBox="0 0 180 138" fill="none" xmlns="http://www.w3.org/2000/svg">
<g clip-path="url(#clip0_13_32)">
<path d="M20.1806 138.004C14.833 137.987 9.70922 135.847 5.92817 132.051C2.14712 128.256 0.0159478 123.113 0 117.746V32.4427C0.015957 27.0753 2.14774 21.9324 5.92965 18.1374C9.71157 14.3424 14.8362 12.2038 20.1842 12.1888H103.208V11.1177C103.212 8.17025 104.38 5.34462 106.457 3.26047C108.534 1.17632 111.349 0.00377877 114.286 0H138.568C141.505 0.00377877 144.32 1.17632 146.397 3.26047C148.473 5.34462 149.642 8.17025 149.645 11.1177V18.2796H171.96C173.016 18.2796 174.062 18.4883 175.037 18.8938C176.012 19.2992 176.899 19.8936 177.645 20.6428C178.392 21.3921 178.984 22.2816 179.388 23.2605C179.792 24.2395 180 25.2887 180 26.3483C180 27.4079 179.792 28.4571 179.388 29.436C178.984 30.415 178.392 31.3045 177.645 32.0537C176.899 32.803 176.012 33.3973 175.037 33.8028C174.062 34.2083 173.016 34.417 171.96 34.417H149.645V48.7479H171.96C174.093 48.7479 176.138 49.598 177.645 51.1112C179.153 52.6243 180 54.6766 180 56.8166C180 58.9566 179.153 61.0089 177.645 62.522C176.138 64.0352 174.093 64.8853 171.96 64.8853H149.645V72.0472C149.642 74.9946 148.473 77.8203 146.397 79.9044C144.32 81.9886 141.505 83.1611 138.568 83.1649H128.394V117.746C128.378 123.113 126.247 128.256 122.466 132.051C118.685 135.847 113.561 137.987 108.213 138.004H20.1806ZM3.93794 117.746C3.94921 122.066 5.66399 126.207 8.70755 129.262C11.7511 132.317 15.8759 134.039 20.1806 134.051H108.213C112.518 134.039 116.643 132.318 119.687 129.263C122.731 126.209 124.447 122.07 124.46 117.75V83.1649H114.286C111.349 83.1611 108.534 81.9886 106.457 79.9044C104.38 77.8203 103.212 74.9946 103.208 72.0472V16.1374H20.1806C15.8759 16.1497 11.7511 17.8716 8.70755 20.9269C5.66399 23.9821 3.94921 28.1223 3.93794 32.4427V39.6045H17.1462C18.4734 39.6055 19.7459 40.135 20.6844 41.0769C21.6228 42.0187 22.1504 43.2959 22.1514 44.6278V50.7222C22.1495 52.0536 21.6215 53.3298 20.6831 54.2709C19.7448 55.212 18.4728 55.741 17.1462 55.742H3.93794V67.0239H17.1462C18.4734 67.0248 19.7459 67.5544 20.6844 68.4962C21.6228 69.4381 22.1504 70.7152 22.1514 72.0472V78.1416C22.1495 79.4733 21.6216 80.7499 20.6833 81.6915C19.7451 82.6331 18.4731 83.163 17.1462 83.1649H3.93794V94.4432H17.1462C18.4731 94.4451 19.7451 94.975 20.6833 95.9166C21.6216 96.8582 22.1495 98.1348 22.1514 99.4665V105.561C22.1504 106.893 21.6228 108.17 20.6844 109.112C19.7459 110.054 18.4734 110.583 17.1462 110.584H3.93794V117.746ZM3.93794 106.632H18.2134V98.3955H3.93794V106.632ZM114.286 3.95224C112.393 3.95413 110.578 4.70967 109.239 6.05304C107.901 7.39641 107.148 9.21787 107.146 11.1177V72.0472C107.148 73.947 107.901 75.7685 109.239 77.1118C110.578 78.4552 112.393 79.2107 114.286 79.2126H138.568C140.461 79.2107 142.276 78.4552 143.614 77.1118C144.953 75.7685 145.706 73.947 145.708 72.0472V11.1177C145.706 9.21787 144.953 7.39641 143.614 6.05304C142.276 4.70967 140.461 3.95413 138.568 3.95224H114.286ZM3.93794 79.2126H18.2134V70.9761H3.93794V79.2126ZM149.645 60.9331H171.96C173.028 60.9015 174.041 60.4538 174.785 59.6849C175.529 58.916 175.945 57.8865 175.945 56.8148C175.945 55.7431 175.529 54.7136 174.785 53.9447C174.041 53.1758 173.028 52.7281 171.96 52.6966H149.645V60.9331ZM3.93794 51.7933H18.2134V43.5568H3.93794V51.7933ZM149.645 30.4683H171.96C173.028 30.4368 174.041 29.9891 174.785 29.2202C175.529 28.4513 175.945 27.4218 175.945 26.3501C175.945 25.2784 175.529 24.2488 174.785 23.4799C174.041 22.7111 173.028 22.2633 171.96 22.2318H149.645V30.4683Z" fill="#28282B"/>
<path d="M4 39H20C21.6569 39 23 40.3431 23 42V53C23 54.6569 21.6569 56 20 56H4V39Z" fill="#1976D2"/>
<path d="M4 67H20C21.6569 67 23 68.3431 23 70V81C23 82.6569 21.6569 84 20 84H4V67Z" fill="#1976D2"/>
<path d="M4 94H20C21.6569 94 23 95.3431 23 97V108C23 109.657 21.6569 111 20 111H4V94Z" fill="#1976D2"/>
</g>
<defs>
<clipPath id="clip0_13_32">
<rect width="180" height="138" fill="white"/>
</clipPath>
</defs>
</svg>
